<svg width="40" height="40" viewBox="0 0 40 40" fill="none" xmlns="http://www.w3.org/2000/svg">
<path d="M15.782 28.0314C15.6309 28.0314 15.4787 27.9794 15.3545 27.8737L11.0812 24.235C10.9338 24.1093 10.8491 23.9258 10.8491 23.7319C10.8491 23.5385 10.9342 23.3549 11.0812 23.2293L15.3545 19.5906C15.632 19.354 16.0488 19.3875 16.2854 19.665C16.5216 19.9429 16.4884 20.3597 16.2106 20.5959L12.528 23.7319L16.2106 26.868C16.4884 27.1046 16.5216 27.5214 16.2854 27.7989C16.1546 27.9525 15.9688 28.0314 15.782 28.0314Z" fill="#354052"/>
<path d="M24.218 28.0314C24.0311 28.0314 23.8454 27.9525 23.715 27.7989C23.4784 27.5214 23.5119 27.1046 23.7894 26.868L27.472 23.7319L23.7894 20.5959C23.5119 20.3597 23.4784 19.9429 23.715 19.665C23.9512 19.3875 24.3683 19.354 24.6455 19.5906L28.9188 23.2293C29.0662 23.3549 29.1509 23.5385 29.1509 23.7319C29.1509 23.9258 29.0662 24.1093 28.9188 24.235L24.6455 27.8737C24.5213 27.9794 24.3691 28.0314 24.218 28.0314Z" fill="#354052"/>
<path d="M18.4873 30.7607C18.442 30.7607 18.3963 30.7559 18.3502 30.7463C17.9935 30.6711 17.765 30.3207 17.8402 29.9639L20.5034 17.3191C20.5786 16.9624 20.9287 16.7339 21.2858 16.8091C21.6425 16.8843 21.871 17.2343 21.7958 17.5914L19.1326 30.2363C19.067 30.5473 18.7928 30.7607 18.4873 30.7607Z" fill="#354052"/>
<path d="M35.566 37.6496H4.43396C1.98924 37.6496 0 35.6607 0 33.2157V6.79245C0 4.34773 1.98924 2.35849 4.43396 2.35849H35.566C38.0108 2.35849 40 4.34773 40 6.79245V33.2157C40 35.6607 38.0108 37.6496 35.566 37.6496ZM4.43396 3.67924C2.71742 3.67924 1.32075 5.07591 1.32075 6.79245V33.2157C1.32075 34.9322 2.71742 36.3289 4.43396 36.3289H35.566C37.2826 36.3289 38.6792 34.9322 38.6792 33.2157V6.79245C38.6792 5.07591 37.2826 3.67924 35.566 3.67924H4.43396Z" fill="#354052"/>
<path d="M39.3396 12.933H0.660377C0.295548 12.933 0 12.6374 0 12.2726C0 11.9082 0.295548 11.6122 0.660377 11.6122H39.3396C39.7045 11.6122 40 11.9082 40 12.2726C40 12.6374 39.7045 12.933 39.3396 12.933Z" fill="#354052"/>
<path d="M11.2831 9.77301C10.1312 9.77301 9.1933 8.83514 9.1933 7.68317C9.1933 6.53082 10.1312 5.59332 11.2831 5.59332C12.4355 5.59332 13.373 6.53082 13.373 7.68317C13.373 8.83514 12.4355 9.77301 11.2831 9.77301ZM11.2831 6.91408C10.8594 6.91408 10.5141 7.25901 10.5141 7.68317C10.5141 8.10733 10.8594 8.45226 11.2831 8.45226C11.7073 8.45226 12.0522 8.10733 12.0522 7.68317C12.0522 7.25901 11.7073 6.91408 11.2831 6.91408Z" fill="#354052"/>
<path d="M4.86218 9.75272C3.70984 9.75272 2.77234 8.81522 2.77234 7.66287C2.77234 6.51053 3.70984 5.57303 4.86218 5.57303C6.01452 5.57303 6.95202 6.51053 6.95202 7.66287C6.95202 8.81522 6.01452 9.75272 4.86218 9.75272ZM4.86218 6.89378C4.43839 6.89378 4.09309 7.23908 4.09309 7.66287C4.09309 8.08703 4.43839 8.43196 4.86218 8.43196C5.28634 8.43196 5.63127 8.08703 5.63127 7.66287C5.63127 7.23908 5.28634 6.89378 4.86218 6.89378Z" fill="#354052"/>
<path d="M17.7042 9.7929C16.5522 9.7929 15.6147 8.8554 15.6147 7.70306C15.6147 6.55109 16.5522 5.61359 17.7042 5.61359C18.8565 5.61359 19.794 6.55109 19.794 7.70306C19.794 8.8554 18.8565 9.7929 17.7042 9.7929ZM17.7042 6.93397C17.2804 6.93397 16.9354 7.2789 16.9354 7.70306C16.9354 8.12722 17.2804 8.47215 17.7042 8.47215C18.1283 8.47215 18.4732 8.12722 18.4732 7.70306C18.4732 7.2789 18.1283 6.93397 17.7042 6.93397Z" fill="#354052"/>
</svg>
