<svg width="220" height="211" viewBox="0 0 220 211" fill="none" xmlns="http://www.w3.org/2000/svg">
<ellipse cx="65.8761" cy="2.1722" rx="1.58242" ry="1.5" transform="rotate(41.5681 65.8761 2.1722)" fill="#40A9FF"/>
<ellipse cx="57.914" cy="11.1502" rx="1.58242" ry="1.5" transform="rotate(41.5681 57.914 11.1502)" fill="#40A9FF"/>
<ellipse cx="49.9519" cy="20.1282" rx="1.58242" ry="1.5" transform="rotate(41.5681 49.9519 20.1282)" fill="#40A9FF"/>
<ellipse cx="41.9897" cy="29.1062" rx="1.58242" ry="1.5" transform="rotate(41.5681 41.9897 29.1062)" fill="#40A9FF"/>
<ellipse cx="34.0276" cy="38.0842" rx="1.58242" ry="1.5" transform="rotate(41.5681 34.0276 38.0842)" fill="#40A9FF"/>
<ellipse cx="26.0655" cy="47.0623" rx="1.58242" ry="1.5" transform="rotate(41.5681 26.0655 47.0623)" fill="#40A9FF"/>
<ellipse cx="18.1034" cy="56.0403" rx="1.58242" ry="1.5" transform="rotate(41.5681 18.1034 56.0403)" fill="#40A9FF"/>
<ellipse cx="10.1413" cy="65.0183" rx="1.58242" ry="1.5" transform="rotate(41.5681 10.1413 65.0183)" fill="#40A9FF"/>
<ellipse cx="2.17916" cy="73.9963" rx="1.58242" ry="1.5" transform="rotate(41.5681 2.17916 73.9963)" fill="#40A9FF"/>
<ellipse cx="74.5581" cy="9.87183" rx="1.58242" ry="1.5" transform="rotate(41.5681 74.5581 9.87183)" fill="#40A9FF"/>
<ellipse cx="66.596" cy="18.8498" rx="1.58242" ry="1.5" transform="rotate(41.5681 66.596 18.8498)" fill="#40A9FF"/>
<ellipse cx="58.6339" cy="27.8279" rx="1.58242" ry="1.5" transform="rotate(41.5681 58.6339 27.8279)" fill="#40A9FF"/>
<ellipse cx="50.6718" cy="36.8059" rx="1.58242" ry="1.5" transform="rotate(41.5681 50.6718 36.8059)" fill="#40A9FF"/>
<ellipse cx="42.7097" cy="45.7839" rx="1.58242" ry="1.5" transform="rotate(41.5681 42.7097 45.7839)" fill="#40A9FF"/>
<ellipse cx="34.7475" cy="54.7619" rx="1.58242" ry="1.5" transform="rotate(41.5681 34.7475 54.7619)" fill="#40A9FF"/>
<ellipse cx="26.7854" cy="63.7399" rx="1.58242" ry="1.5" transform="rotate(41.5681 26.7854 63.7399)" fill="#40A9FF"/>
<ellipse cx="18.8233" cy="72.7179" rx="1.58242" ry="1.5" transform="rotate(41.5681 18.8233 72.7179)" fill="#40A9FF"/>
<ellipse cx="10.8612" cy="81.6959" rx="1.58242" ry="1.5" transform="rotate(41.5681 10.8612 81.6959)" fill="#40A9FF"/>
<ellipse cx="83.2402" cy="17.5715" rx="1.58242" ry="1.5" transform="rotate(41.5681 83.2402 17.5715)" fill="#40A9FF"/>
<ellipse cx="75.278" cy="26.5495" rx="1.58242" ry="1.5" transform="rotate(41.5681 75.278 26.5495)" fill="#40A9FF"/>
<ellipse cx="67.3159" cy="35.5275" rx="1.58242" ry="1.5" transform="rotate(41.5681 67.3159 35.5275)" fill="#40A9FF"/>
<ellipse cx="59.3538" cy="44.5055" rx="1.58242" ry="1.5" transform="rotate(41.5681 59.3538 44.5055)" fill="#40A9FF"/>
<ellipse cx="51.3917" cy="53.4835" rx="1.58242" ry="1.5" transform="rotate(41.5681 51.3917 53.4835)" fill="#40A9FF"/>
<ellipse cx="43.4296" cy="62.4615" rx="1.58242" ry="1.5" transform="rotate(41.5681 43.4296 62.4615)" fill="#40A9FF"/>
<ellipse cx="35.4675" cy="71.4395" rx="1.58242" ry="1.5" transform="rotate(41.5681 35.4675 71.4395)" fill="#40A9FF"/>
<ellipse cx="27.5054" cy="80.4176" rx="1.58242" ry="1.5" transform="rotate(41.5681 27.5054 80.4176)" fill="#40A9FF"/>
<ellipse cx="19.5432" cy="89.3956" rx="1.58242" ry="1.5" transform="rotate(41.5681 19.5432 89.3956)" fill="#40A9FF"/>
<ellipse cx="91.9222" cy="25.2711" rx="1.58242" ry="1.5" transform="rotate(41.5681 91.9222 25.2711)" fill="#40A9FF"/>
<ellipse cx="83.9601" cy="34.2491" rx="1.58242" ry="1.5" transform="rotate(41.5681 83.9601 34.2491)" fill="#40A9FF"/>
<ellipse cx="75.998" cy="43.2271" rx="1.58242" ry="1.5" transform="rotate(41.5681 75.998 43.2271)" fill="#40A9FF"/>
<ellipse cx="68.0359" cy="52.2051" rx="1.58242" ry="1.5" transform="rotate(41.5681 68.0359 52.2051)" fill="#40A9FF"/>
<ellipse cx="60.0737" cy="61.1831" rx="1.58242" ry="1.5" transform="rotate(41.5681 60.0737 61.1831)" fill="#40A9FF"/>
<ellipse cx="52.1116" cy="70.1611" rx="1.58242" ry="1.5" transform="rotate(41.5681 52.1116 70.1611)" fill="#40A9FF"/>
<ellipse cx="44.1495" cy="79.1392" rx="1.58242" ry="1.5" transform="rotate(41.5681 44.1495 79.1392)" fill="#40A9FF"/>
<ellipse cx="36.1874" cy="88.1172" rx="1.58242" ry="1.5" transform="rotate(41.5681 36.1874 88.1172)" fill="#40A9FF"/>
<ellipse cx="28.2253" cy="97.0952" rx="1.58242" ry="1.5" transform="rotate(41.5681 28.2253 97.0952)" fill="#40A9FF"/>
<ellipse cx="100.604" cy="32.9707" rx="1.58242" ry="1.5" transform="rotate(41.5681 100.604 32.9707)" fill="#40A9FF"/>
<ellipse cx="92.6421" cy="41.9487" rx="1.58242" ry="1.5" transform="rotate(41.5681 92.6421 41.9487)" fill="#40A9FF"/>
<ellipse cx="84.68" cy="50.9267" rx="1.58242" ry="1.5" transform="rotate(41.5681 84.68 50.9267)" fill="#40A9FF"/>
<ellipse cx="76.7179" cy="59.9047" rx="1.58242" ry="1.5" transform="rotate(41.5681 76.7179 59.9047)" fill="#40A9FF"/>
<ellipse cx="68.7558" cy="68.8828" rx="1.58242" ry="1.5" transform="rotate(41.5681 68.7558 68.8828)" fill="#40A9FF"/>
<ellipse cx="60.7937" cy="77.8608" rx="1.58242" ry="1.5" transform="rotate(41.5681 60.7937 77.8608)" fill="#40A9FF"/>
<ellipse cx="52.8315" cy="86.8388" rx="1.58242" ry="1.5" transform="rotate(41.5681 52.8315 86.8388)" fill="#40A9FF"/>
<ellipse cx="44.8694" cy="95.8168" rx="1.58242" ry="1.5" transform="rotate(41.5681 44.8694 95.8168)" fill="#40A9FF"/>
<ellipse cx="36.9073" cy="104.795" rx="1.58242" ry="1.5" transform="rotate(41.5681 36.9073 104.795)" fill="#40A9FF"/>
<ellipse cx="109.286" cy="40.6703" rx="1.58242" ry="1.5" transform="rotate(41.5681 109.286 40.6703)" fill="#40A9FF"/>
<ellipse cx="101.324" cy="49.6483" rx="1.58242" ry="1.5" transform="rotate(41.5681 101.324 49.6483)" fill="#40A9FF"/>
<ellipse cx="93.3621" cy="58.6264" rx="1.58242" ry="1.5" transform="rotate(41.5681 93.3621 58.6264)" fill="#40A9FF"/>
<ellipse cx="85.3999" cy="67.6044" rx="1.58242" ry="1.5" transform="rotate(41.5681 85.3999 67.6044)" fill="#40A9FF"/>
<ellipse cx="77.4378" cy="76.5824" rx="1.58242" ry="1.5" transform="rotate(41.5681 77.4378 76.5824)" fill="#40A9FF"/>
<ellipse cx="69.4757" cy="85.5604" rx="1.58242" ry="1.5" transform="rotate(41.5681 69.4757 85.5604)" fill="#40A9FF"/>
<ellipse cx="61.5136" cy="94.5384" rx="1.58242" ry="1.5" transform="rotate(41.5681 61.5136 94.5384)" fill="#40A9FF"/>
<ellipse cx="53.5515" cy="103.516" rx="1.58242" ry="1.5" transform="rotate(41.5681 53.5515 103.516)" fill="#40A9FF"/>
<ellipse cx="45.5893" cy="112.494" rx="1.58242" ry="1.5" transform="rotate(41.5681 45.5893 112.494)" fill="#40A9FF"/>
<ellipse cx="117.968" cy="48.37" rx="1.58242" ry="1.5" transform="rotate(41.5681 117.968 48.37)" fill="#40A9FF"/>
<ellipse cx="110.006" cy="57.348" rx="1.58242" ry="1.5" transform="rotate(41.5681 110.006 57.348)" fill="#40A9FF"/>
<ellipse cx="102.044" cy="66.326" rx="1.58242" ry="1.5" transform="rotate(41.5681 102.044 66.326)" fill="#40A9FF"/>
<ellipse cx="94.0819" cy="75.304" rx="1.58242" ry="1.5" transform="rotate(41.5681 94.0819 75.304)" fill="#40A9FF"/>
<ellipse cx="86.1198" cy="84.282" rx="1.58242" ry="1.5" transform="rotate(41.5681 86.1198 84.282)" fill="#40A9FF"/>
<ellipse cx="78.1577" cy="93.26" rx="1.58242" ry="1.5" transform="rotate(41.5681 78.1577 93.26)" fill="#40A9FF"/>
<ellipse cx="70.1956" cy="102.238" rx="1.58242" ry="1.5" transform="rotate(41.5681 70.1956 102.238)" fill="#40A9FF"/>
<ellipse cx="62.2335" cy="111.216" rx="1.58242" ry="1.5" transform="rotate(41.5681 62.2335 111.216)" fill="#40A9FF"/>
<ellipse cx="54.2714" cy="120.194" rx="1.58242" ry="1.5" transform="rotate(41.5681 54.2714 120.194)" fill="#40A9FF"/>
<ellipse cx="126.65" cy="56.0696" rx="1.58242" ry="1.5" transform="rotate(41.5681 126.65 56.0696)" fill="#40A9FF"/>
<ellipse cx="118.688" cy="65.0476" rx="1.58242" ry="1.5" transform="rotate(41.5681 118.688 65.0476)" fill="#40A9FF"/>
<ellipse cx="110.726" cy="74.0256" rx="1.58242" ry="1.5" transform="rotate(41.5681 110.726 74.0256)" fill="#40A9FF"/>
<ellipse cx="102.764" cy="83.0036" rx="1.58242" ry="1.5" transform="rotate(41.5681 102.764 83.0036)" fill="#40A9FF"/>
<ellipse cx="94.8019" cy="91.9817" rx="1.58242" ry="1.5" transform="rotate(41.5681 94.8019 91.9817)" fill="#40A9FF"/>
<ellipse cx="86.8397" cy="100.96" rx="1.58242" ry="1.5" transform="rotate(41.5681 86.8397 100.96)" fill="#40A9FF"/>
<ellipse cx="78.8776" cy="109.938" rx="1.58242" ry="1.5" transform="rotate(41.5681 78.8776 109.938)" fill="#40A9FF"/>
<ellipse cx="70.9155" cy="118.916" rx="1.58242" ry="1.5" transform="rotate(41.5681 70.9155 118.916)" fill="#40A9FF"/>
<ellipse cx="62.9534" cy="127.894" rx="1.58242" ry="1.5" transform="rotate(41.5681 62.9534 127.894)" fill="#40A9FF"/>
<ellipse cx="135.332" cy="63.7692" rx="1.58242" ry="1.5" transform="rotate(41.5681 135.332 63.7692)" fill="#40A9FF"/>
<ellipse cx="127.37" cy="72.7472" rx="1.58242" ry="1.5" transform="rotate(41.5681 127.37 72.7472)" fill="#40A9FF"/>
<ellipse cx="119.408" cy="81.7253" rx="1.58242" ry="1.5" transform="rotate(41.5681 119.408 81.7253)" fill="#40A9FF"/>
<ellipse cx="111.446" cy="90.7033" rx="1.58242" ry="1.5" transform="rotate(41.5681 111.446 90.7033)" fill="#40A9FF"/>
<ellipse cx="103.484" cy="99.6813" rx="1.58242" ry="1.5" transform="rotate(41.5681 103.484 99.6813)" fill="#40A9FF"/>
<ellipse cx="95.5218" cy="108.659" rx="1.58242" ry="1.5" transform="rotate(41.5681 95.5218 108.659)" fill="#40A9FF"/>
<ellipse cx="87.5597" cy="117.637" rx="1.58242" ry="1.5" transform="rotate(41.5681 87.5597 117.637)" fill="#40A9FF"/>
<ellipse cx="79.5976" cy="126.615" rx="1.58242" ry="1.5" transform="rotate(41.5681 79.5976 126.615)" fill="#40A9FF"/>
<ellipse cx="71.6354" cy="135.593" rx="1.58242" ry="1.5" transform="rotate(41.5681 71.6354 135.593)" fill="#40A9FF"/>
<ellipse cx="147.876" cy="75.1722" rx="1.58242" ry="1.5" transform="rotate(41.5681 147.876 75.1722)" fill="#40A9FF"/>
<ellipse cx="139.914" cy="84.1502" rx="1.58242" ry="1.5" transform="rotate(41.5681 139.914 84.1502)" fill="#40A9FF"/>
<ellipse cx="131.952" cy="93.1282" rx="1.58242" ry="1.5" transform="rotate(41.5681 131.952 93.1282)" fill="#40A9FF"/>
<ellipse cx="123.99" cy="102.106" rx="1.58242" ry="1.5" transform="rotate(41.5681 123.99 102.106)" fill="#40A9FF"/>
<ellipse cx="116.028" cy="111.084" rx="1.58242" ry="1.5" transform="rotate(41.5681 116.028 111.084)" fill="#40A9FF"/>
<ellipse cx="108.066" cy="120.062" rx="1.58242" ry="1.5" transform="rotate(41.5681 108.066 120.062)" fill="#40A9FF"/>
<ellipse cx="100.103" cy="129.04" rx="1.58242" ry="1.5" transform="rotate(41.5681 100.103 129.04)" fill="#40A9FF"/>
<ellipse cx="92.1413" cy="138.018" rx="1.58242" ry="1.5" transform="rotate(41.5681 92.1413 138.018)" fill="#40A9FF"/>
<ellipse cx="84.1792" cy="146.996" rx="1.58242" ry="1.5" transform="rotate(41.5681 84.1792 146.996)" fill="#40A9FF"/>
<ellipse cx="156.558" cy="82.8718" rx="1.58242" ry="1.5" transform="rotate(41.5681 156.558 82.8718)" fill="#40A9FF"/>
<ellipse cx="148.596" cy="91.8498" rx="1.58242" ry="1.5" transform="rotate(41.5681 148.596 91.8498)" fill="#40A9FF"/>
<ellipse cx="140.634" cy="100.828" rx="1.58242" ry="1.5" transform="rotate(41.5681 140.634 100.828)" fill="#40A9FF"/>
<ellipse cx="132.672" cy="109.806" rx="1.58242" ry="1.5" transform="rotate(41.5681 132.672 109.806)" fill="#40A9FF"/>
<ellipse cx="124.71" cy="118.784" rx="1.58242" ry="1.5" transform="rotate(41.5681 124.71 118.784)" fill="#40A9FF"/>
<ellipse cx="116.748" cy="127.762" rx="1.58242" ry="1.5" transform="rotate(41.5681 116.748 127.762)" fill="#40A9FF"/>
<ellipse cx="108.785" cy="136.74" rx="1.58242" ry="1.5" transform="rotate(41.5681 108.785 136.74)" fill="#40A9FF"/>
<ellipse cx="100.823" cy="145.718" rx="1.58242" ry="1.5" transform="rotate(41.5681 100.823 145.718)" fill="#40A9FF"/>
<ellipse cx="92.8612" cy="154.696" rx="1.58242" ry="1.5" transform="rotate(41.5681 92.8612 154.696)" fill="#40A9FF"/>
<ellipse cx="165.24" cy="90.5715" rx="1.58242" ry="1.5" transform="rotate(41.5681 165.24 90.5715)" fill="#40A9FF"/>
<ellipse cx="157.278" cy="99.5495" rx="1.58242" ry="1.5" transform="rotate(41.5681 157.278 99.5495)" fill="#40A9FF"/>
<ellipse cx="149.316" cy="108.527" rx="1.58242" ry="1.5" transform="rotate(41.5681 149.316 108.527)" fill="#40A9FF"/>
<ellipse cx="141.354" cy="117.505" rx="1.58242" ry="1.5" transform="rotate(41.5681 141.354 117.505)" fill="#40A9FF"/>
<ellipse cx="133.392" cy="126.484" rx="1.58242" ry="1.5" transform="rotate(41.5681 133.392 126.484)" fill="#40A9FF"/>
<ellipse cx="125.43" cy="135.462" rx="1.58242" ry="1.5" transform="rotate(41.5681 125.43 135.462)" fill="#40A9FF"/>
<ellipse cx="117.468" cy="144.44" rx="1.58242" ry="1.5" transform="rotate(41.5681 117.468 144.44)" fill="#40A9FF"/>
<ellipse cx="109.505" cy="153.418" rx="1.58242" ry="1.5" transform="rotate(41.5681 109.505 153.418)" fill="#40A9FF"/>
<ellipse cx="101.543" cy="162.396" rx="1.58242" ry="1.5" transform="rotate(41.5681 101.543 162.396)" fill="#40A9FF"/>
<ellipse cx="173.922" cy="98.2711" rx="1.58242" ry="1.5" transform="rotate(41.5681 173.922 98.2711)" fill="#40A9FF"/>
<ellipse cx="165.96" cy="107.249" rx="1.58242" ry="1.5" transform="rotate(41.5681 165.96 107.249)" fill="#40A9FF"/>
<ellipse cx="157.998" cy="116.227" rx="1.58242" ry="1.5" transform="rotate(41.5681 157.998 116.227)" fill="#40A9FF"/>
<ellipse cx="150.036" cy="125.205" rx="1.58242" ry="1.5" transform="rotate(41.5681 150.036 125.205)" fill="#40A9FF"/>
<ellipse cx="142.074" cy="134.183" rx="1.58242" ry="1.5" transform="rotate(41.5681 142.074 134.183)" fill="#40A9FF"/>
<ellipse cx="134.112" cy="143.161" rx="1.58242" ry="1.5" transform="rotate(41.5681 134.112 143.161)" fill="#40A9FF"/>
<ellipse cx="126.15" cy="152.139" rx="1.58242" ry="1.5" transform="rotate(41.5681 126.15 152.139)" fill="#40A9FF"/>
<ellipse cx="118.187" cy="161.117" rx="1.58242" ry="1.5" transform="rotate(41.5681 118.187 161.117)" fill="#40A9FF"/>
<ellipse cx="110.225" cy="170.095" rx="1.58242" ry="1.5" transform="rotate(41.5681 110.225 170.095)" fill="#40A9FF"/>
<ellipse cx="182.604" cy="105.971" rx="1.58242" ry="1.5" transform="rotate(41.5681 182.604 105.971)" fill="#40A9FF"/>
<ellipse cx="174.642" cy="114.949" rx="1.58242" ry="1.5" transform="rotate(41.5681 174.642 114.949)" fill="#40A9FF"/>
<ellipse cx="166.68" cy="123.927" rx="1.58242" ry="1.5" transform="rotate(41.5681 166.68 123.927)" fill="#40A9FF"/>
<ellipse cx="158.718" cy="132.905" rx="1.58242" ry="1.5" transform="rotate(41.5681 158.718 132.905)" fill="#40A9FF"/>
<ellipse cx="150.756" cy="141.883" rx="1.58242" ry="1.5" transform="rotate(41.5681 150.756 141.883)" fill="#40A9FF"/>
<ellipse cx="142.794" cy="150.861" rx="1.58242" ry="1.5" transform="rotate(41.5681 142.794 150.861)" fill="#40A9FF"/>
<ellipse cx="134.832" cy="159.839" rx="1.58242" ry="1.5" transform="rotate(41.5681 134.832 159.839)" fill="#40A9FF"/>
<ellipse cx="126.869" cy="168.817" rx="1.58242" ry="1.5" transform="rotate(41.5681 126.869 168.817)" fill="#40A9FF"/>
<ellipse cx="118.907" cy="177.795" rx="1.58242" ry="1.5" transform="rotate(41.5681 118.907 177.795)" fill="#40A9FF"/>
<ellipse cx="191.286" cy="113.67" rx="1.58242" ry="1.5" transform="rotate(41.5681 191.286 113.67)" fill="#40A9FF"/>
<ellipse cx="183.324" cy="122.648" rx="1.58242" ry="1.5" transform="rotate(41.5681 183.324 122.648)" fill="#40A9FF"/>
<ellipse cx="175.362" cy="131.626" rx="1.58242" ry="1.5" transform="rotate(41.5681 175.362 131.626)" fill="#40A9FF"/>
<ellipse cx="167.4" cy="140.604" rx="1.58242" ry="1.5" transform="rotate(41.5681 167.4 140.604)" fill="#40A9FF"/>
<ellipse cx="159.438" cy="149.582" rx="1.58242" ry="1.5" transform="rotate(41.5681 159.438 149.582)" fill="#40A9FF"/>
<ellipse cx="151.476" cy="158.56" rx="1.58242" ry="1.5" transform="rotate(41.5681 151.476 158.56)" fill="#40A9FF"/>
<ellipse cx="143.514" cy="167.538" rx="1.58242" ry="1.5" transform="rotate(41.5681 143.514 167.538)" fill="#40A9FF"/>
<ellipse cx="135.551" cy="176.516" rx="1.58242" ry="1.5" transform="rotate(41.5681 135.551 176.516)" fill="#40A9FF"/>
<ellipse cx="127.589" cy="185.494" rx="1.58242" ry="1.5" transform="rotate(41.5681 127.589 185.494)" fill="#40A9FF"/>
<ellipse cx="199.968" cy="121.37" rx="1.58242" ry="1.5" transform="rotate(41.5681 199.968 121.37)" fill="#40A9FF"/>
<ellipse cx="192.006" cy="130.348" rx="1.58242" ry="1.5" transform="rotate(41.5681 192.006 130.348)" fill="#40A9FF"/>
<ellipse cx="184.044" cy="139.326" rx="1.58242" ry="1.5" transform="rotate(41.5681 184.044 139.326)" fill="#40A9FF"/>
<ellipse cx="176.082" cy="148.304" rx="1.58242" ry="1.5" transform="rotate(41.5681 176.082 148.304)" fill="#40A9FF"/>
<ellipse cx="168.12" cy="157.282" rx="1.58242" ry="1.5" transform="rotate(41.5681 168.12 157.282)" fill="#40A9FF"/>
<ellipse cx="160.158" cy="166.26" rx="1.58242" ry="1.5" transform="rotate(41.5681 160.158 166.26)" fill="#40A9FF"/>
<ellipse cx="152.196" cy="175.238" rx="1.58242" ry="1.5" transform="rotate(41.5681 152.196 175.238)" fill="#40A9FF"/>
<ellipse cx="144.234" cy="184.216" rx="1.58242" ry="1.5" transform="rotate(41.5681 144.234 184.216)" fill="#40A9FF"/>
<ellipse cx="136.271" cy="193.194" rx="1.58242" ry="1.5" transform="rotate(41.5681 136.271 193.194)" fill="#40A9FF"/>
<ellipse cx="208.65" cy="129.07" rx="1.58242" ry="1.5" transform="rotate(41.5681 208.65 129.07)" fill="#40A9FF"/>
<ellipse cx="200.688" cy="138.048" rx="1.58242" ry="1.5" transform="rotate(41.5681 200.688 138.048)" fill="#40A9FF"/>
<ellipse cx="192.726" cy="147.026" rx="1.58242" ry="1.5" transform="rotate(41.5681 192.726 147.026)" fill="#40A9FF"/>
<ellipse cx="184.764" cy="156.004" rx="1.58242" ry="1.5" transform="rotate(41.5681 184.764 156.004)" fill="#40A9FF"/>
<ellipse cx="176.802" cy="164.982" rx="1.58242" ry="1.5" transform="rotate(41.5681 176.802 164.982)" fill="#40A9FF"/>
<ellipse cx="168.84" cy="173.96" rx="1.58242" ry="1.5" transform="rotate(41.5681 168.84 173.96)" fill="#40A9FF"/>
<ellipse cx="160.878" cy="182.938" rx="1.58242" ry="1.5" transform="rotate(41.5681 160.878 182.938)" fill="#40A9FF"/>
<ellipse cx="152.916" cy="191.916" rx="1.58242" ry="1.5" transform="rotate(41.5681 152.916 191.916)" fill="#40A9FF"/>
<ellipse cx="144.953" cy="200.894" rx="1.58242" ry="1.5" transform="rotate(41.5681 144.953 200.894)" fill="#40A9FF"/>
<ellipse cx="217.332" cy="136.769" rx="1.58242" ry="1.5" transform="rotate(41.5681 217.332 136.769)" fill="#40A9FF"/>
<ellipse cx="209.37" cy="145.747" rx="1.58242" ry="1.5" transform="rotate(41.5681 209.37 145.747)" fill="#40A9FF"/>
<ellipse cx="201.408" cy="154.725" rx="1.58242" ry="1.5" transform="rotate(41.5681 201.408 154.725)" fill="#40A9FF"/>
<ellipse cx="193.446" cy="163.703" rx="1.58242" ry="1.5" transform="rotate(41.5681 193.446 163.703)" fill="#40A9FF"/>
<ellipse cx="185.484" cy="172.681" rx="1.58242" ry="1.5" transform="rotate(41.5681 185.484 172.681)" fill="#40A9FF"/>
<ellipse cx="177.522" cy="181.659" rx="1.58242" ry="1.5" transform="rotate(41.5681 177.522 181.659)" fill="#40A9FF"/>
<ellipse cx="169.56" cy="190.637" rx="1.58242" ry="1.5" transform="rotate(41.5681 169.56 190.637)" fill="#40A9FF"/>
<ellipse cx="161.598" cy="199.615" rx="1.58242" ry="1.5" transform="rotate(41.5681 161.598 199.615)" fill="#40A9FF"/>
<ellipse cx="153.636" cy="208.593" rx="1.58242" ry="1.5" transform="rotate(41.5681 153.636 208.593)" fill="#40A9FF"/>
</svg>
