<svg width="1440" height="681" viewBox="0 0 1440 681" fill="none" xmlns="http://www.w3.org/2000/svg">
<g opacity="0.25">
<path opacity="0.25" d="M15.3196 680C-16.4114 588.242 6.38641 490.125 65.9814 416.896C135.936 330.95 246.299 287.061 351.816 272.853C439.36 261.082 529.203 268.488 617.542 266.597C770.059 263.359 920.193 227.807 1072.12 215.512C1126.91 211.082 1182.1 210.151 1236.93 204.731C1283.48 200.133 1333.8 192.727 1373.02 164.544" stroke="#149DFD" stroke-width="0.888889"/>
<path opacity="0.25" d="M23.6563 676.435C-5.90347 586.75 16.9795 491.536 75.0915 420.453C142.882 337.52 249.257 294.765 351.212 280.382C435.549 268.488 522.476 275.457 607.459 271.653C683.288 268.284 757.883 250.192 832.485 235.918C867.494 229.225 902.822 223.144 938.115 218.691C973.876 214.188 1010.03 211.002 1046.08 209.001C1051.32 208.71 1056.6 208.448 1061.85 208.23C1122.06 205.749 1182.85 207.503 1242.84 204.534C1259.92 203.683 1277.32 202.432 1294.03 199.748C1322.97 195.092 1350.45 185.598 1375.4 168.727" stroke="#149DFD" stroke-width="0.888889"/>
<path opacity="0.25" d="M32.0281 672.972C4.6041 585.462 27.5509 493.027 84.1233 424.098C149.764 344.117 252.208 302.476 350.615 287.897C431.774 275.879 515.841 282.426 597.482 276.847C671.821 271.754 742.62 244.837 815.1 227.726C850.712 219.302 886.878 212.376 923.093 208.273C960.146 204.076 997.752 202.068 1035.2 201.311C1040.64 201.202 1046.11 201.129 1051.56 201.1C1114.15 200.78 1177.15 204.963 1239.59 205.356C1257.45 205.465 1275.7 205.356 1293.19 203.348C1323.36 199.951 1351.84 190.392 1377.83 172.968" stroke="#149DFD" stroke-width="0.888889"/>
<path opacity="0.25" d="M40.4442 669.655C15.4185 583.957 37.7905 495.007 93.0856 427.859C156.562 350.745 255.111 310.21 350.02 295.456C428.071 283.322 508.739 288.952 587.598 282.15C661.008 275.77 727.514 239.709 797.618 219.797C833.748 209.547 870.765 201.879 907.931 198.053C946.325 194.11 985.4 193.244 1024.21 193.688C1029.85 193.76 1035.52 193.87 1041.16 194.022C1106.19 195.834 1171.37 202.381 1236.22 206.128C1254.81 207.205 1273.82 208.31 1292.23 206.892C1323.12 204.571 1354.15 195.877 1380.13 177.196" stroke="#149DFD" stroke-width="0.888889"/>
<path opacity="0.25" d="M48.887 666.388C25.8338 582.778 48.1775 496.789 101.968 431.649C163.28 357.445 257.984 317.877 349.43 302.927C424.373 290.676 502.132 295.769 577.806 287.453C650.293 279.495 712.003 234.761 780.027 212.158C816.597 200.016 854.53 191.614 892.632 188.056C932.431 184.346 972.974 184.572 1013.18 186.245C1019.02 186.485 1024.9 186.769 1030.75 187.111C1098.27 190.966 1165.72 199.922 1232.9 206.971C1252.32 209.001 1272.14 211.053 1291.31 210.492C1323.74 209.677 1355.31 199.613 1382.47 181.429" stroke="#149DFD" stroke-width="0.888889"/>
<path opacity="0.25" d="M57.3603 663.267C36.2512 581.898 58.5452 498.615 110.768 435.563C169.916 364.109 260.823 325.552 348.807 310.442C420.699 298.075 495.577 302.629 568.058 292.895C639.885 283.256 696.309 230.047 762.389 204.789C799.315 190.634 837.951 181.706 877.229 178.25C918.468 174.7 960.495 176.009 1002.11 178.854C1008.16 179.269 1014.24 179.72 1020.29 180.236C1090.33 186.172 1160.07 197.448 1229.61 207.75C1249.8 210.74 1270.38 213.853 1290.4 214.021C1323.32 214.29 1356.76 205.415 1384.77 185.649" stroke="#149DFD" stroke-width="0.888889"/>
<path opacity="0.25" d="M65.8672 660.248C46.6313 581.119 68.819 500.339 119.488 439.55C176.642 370.969 263.327 333.336 348.26 317.964C417.136 305.473 489.17 309.497 558.514 298.424C629.752 287.046 680.237 226.155 744.643 197.776C781.837 181.393 821.806 171.906 861.718 168.742C904.383 165.352 947.935 167.687 990.948 171.652C997.206 172.227 1003.49 172.852 1009.76 173.543C1082.37 181.487 1154.51 195.084 1226.31 208.608C1247.18 212.544 1268.5 216.938 1289.46 217.615C1323.78 218.728 1358 210.267 1387.08 189.905" stroke="#149DFD" stroke-width="0.888889"/>
<path opacity="0.25" d="M74.3957 657.346C56.9692 580.443 79.0362 502.441 128.137 443.631C183.134 377.728 266.13 341.055 347.692 325.48C413.588 312.887 482.826 316.342 549.027 304.033C619.854 290.858 664.158 222.067 726.818 191.032C764.169 172.525 805.231 162.471 846.023 159.423C890.263 156.113 935.305 159.423 979.801 164.515C986.272 165.243 992.771 166.043 999.242 166.894C1074.45 176.81 1148.96 192.72 1223.06 209.423C1244.76 214.312 1266.88 219.608 1288.59 221.158C1323.89 223.704 1359.05 214.887 1389.43 194.153" stroke="#149DFD" stroke-width="0.888889"/>
<path opacity="0.25" d="M82.96 654.559C67.2789 579.904 89.1898 504.66 136.652 447.77C189.492 384.479 268.84 348.737 347.075 332.973C410.033 320.285 476.163 322.926 539.583 309.693C610.282 294.961 648.413 218.08 708.888 184.565C746.175 163.875 788.521 153.283 830.221 150.314C876.001 147.106 922.561 151.406 968.533 157.502C975.231 158.397 981.951 159.343 988.62 160.361C1066.49 172.248 1143.4 190.406 1219.76 210.245C1242.22 216.065 1265.09 222.416 1287.65 224.693C1324.26 228.552 1361.04 219.262 1391.72 198.409" stroke="#149DFD" stroke-width="0.888889"/>
<path opacity="0.25" d="M91.5455 651.875C77.5533 579.519 99.2726 506.974 145.152 452.034C195.849 391.325 271.601 356.456 346.529 340.509C406.578 327.727 469.99 329.772 530.302 315.52C600.817 298.861 632.207 214.53 690.937 178.417C728.16 155.538 771.761 144.364 814.27 141.497C861.619 138.282 909.783 143.52 957.202 150.693C964.12 151.74 971.052 152.839 977.949 154.018C1058.49 167.789 1137.85 188.21 1216.45 211.155C1239.58 217.913 1263.11 225.479 1286.69 228.316C1324.55 232.841 1361.45 224.511 1393.97 202.665" stroke="#149DFD" stroke-width="0.888889"/>
<path opacity="0.25" d="M100.166 649.285C87.7917 579.243 109.256 509.382 153.546 456.34C202.143 398.156 274.304 364.153 345.968 348.024C403.151 335.155 463.859 336.574 521.113 321.384C591.529 302.709 615.894 211.227 672.907 172.554C709.91 147.456 754.859 135.678 798.27 132.84C847.229 129.603 896.982 135.75 945.856 143.905C953.001 145.098 960.153 146.357 967.263 147.688C1050.55 163.322 1132.38 185.976 1213.2 211.984C1237.14 219.688 1261.45 228.134 1285.76 231.837C1324.35 237.715 1362.62 229.335 1396.27 206.928" stroke="#149DFD" stroke-width="0.888889"/>
<path opacity="0.25" d="M108.802 646.848C97.9957 579.111 119.133 511.207 161.848 460.763C208.678 405.474 275.922 372.548 345.394 355.539C400.029 342.168 458.411 343.79 512.003 327.334C582.014 305.837 598.979 208.666 654.792 166.959C691.441 139.584 737.881 127.289 782.121 124.408C832.669 121.113 884.062 128.089 934.461 137.241C941.826 138.587 949.205 140.042 956.542 141.497C1042.53 158.891 1126.93 183.815 1209.93 212.842C1234.6 221.477 1259.66 230.942 1284.81 235.394C1324.44 242.385 1363.74 234.157 1398.53 211.198" stroke="#149DFD" stroke-width="0.888889"/>
<path opacity="0.25" d="M117.493 644.498C108.184 579.075 129.016 513.877 170.099 465.244C214.8 412.334 278.617 380.266 344.853 363.061C396.7 349.595 452.471 350.548 503.026 333.365C536.531 321.973 557.079 285.489 573.981 255.487C592.032 223.39 607.897 185.445 636.669 161.714C672.778 131.938 721.106 119.178 765.914 116.268C818.144 112.877 871.126 120.633 923.05 130.752C930.65 132.207 938.256 133.778 945.813 135.408C1034.51 154.548 1121.5 181.698 1206.65 213.715C1231.99 223.23 1257.67 233.888 1283.86 238.922C1324.78 246.757 1364.99 238.922 1400.77 215.475" stroke="#149DFD" stroke-width="0.888889"/>
<path opacity="0.25" d="M126.157 642.258C118.281 579.162 138.759 516.657 178.21 469.806C220.783 419.224 281.513 387.476 344.244 370.577C393.061 357.431 446.291 357.111 494.072 339.476C527.535 327.109 546.054 286.944 560.77 256.15C576.827 222.554 590.287 182.062 618.357 156.731C653.912 124.649 703.914 111.321 749.488 108.331C803.364 104.796 858.127 113.278 911.478 124.336C919.283 125.958 927.152 127.646 934.936 129.428C1026.35 150.053 1116.03 179.625 1203.4 214.588C1229.53 225.05 1256 236.588 1282.87 242.466C1324.49 251.559 1366.06 243.724 1402.98 219.761" stroke="#149DFD" stroke-width="0.888889"/>
<path opacity="0.25" d="M134.864 640.133C128.365 579.388 148.474 519.523 186.264 474.44C226.708 426.149 284.139 395.144 343.713 378.091C389.834 364.866 440.474 363.825 485.289 345.66C518.638 332.15 534.958 288.632 547.729 256.906C561.8 221.987 572.805 178.934 600.115 152.009C634.99 117.643 686.68 103.69 733.021 100.59C788.593 96.873 845.037 106.09 899.921 118.05C907.974 119.803 916.07 121.629 924.045 123.521C1018.3 145.819 1110.58 177.566 1200.14 215.476C1226.84 226.774 1253.9 239.657 1281.93 246.03C1325.15 255.786 1367.18 248.402 1405.22 224.046" stroke="#149DFD" stroke-width="0.888889"/>
<path opacity="0.25" d="M143.591 638.118C138.411 579.745 158.108 522.498 194.231 479.147C232.603 433.09 286.742 402.884 343.13 385.614C386.561 372.315 434.662 370.497 476.567 351.924C509.874 337.192 523.781 290.4 534.708 257.896C546.877 221.63 555.214 176.257 581.786 147.674C615.845 110.994 669.366 96.4075 716.437 93.1702C773.726 89.2345 831.874 99.1429 888.311 111.939C896.599 113.816 904.936 115.773 913.146 117.759C1010.23 141.636 1105.18 175.558 1196.89 216.363C1224.3 228.556 1252.06 242.48 1280.96 249.537C1325.19 260.34 1368.24 253.218 1407.42 228.338" stroke="#149DFD" stroke-width="0.888889"/>
<path opacity="0.25" d="M152.339 636.19C148.416 580.174 167.659 525.554 202.107 483.912C238.408 440.03 288.956 411.272 342.598 393.107C383.617 379.212 428.73 377.75 467.982 358.246C501.331 341.695 512.584 292.131 521.695 258.943C531.969 221.485 537.603 173.791 563.367 143.534C596.581 104.541 651.954 89.3072 699.72 85.9025C758.698 81.6904 818.591 92.2608 876.618 105.865C885.133 107.865 893.718 109.946 902.204 112.099C1002.14 137.503 1099.74 173.58 1193.64 217.265C1221.93 230.426 1250.48 244.99 1279.98 253.065C1324.68 265.309 1369.29 258.049 1409.62 232.637" stroke="#149DFD" stroke-width="0.888889"/>
<path opacity="0.25" d="M161.109 634.423C159.42 580.341 176.655 529.344 209.897 488.794C244.133 447.029 291.602 418.846 342.051 400.651C380.324 386.829 423.01 384.443 459.495 364.684C492.638 346.737 501.401 293.776 508.752 260.18C517.167 221.703 520.069 171.332 544.939 139.751C577.28 98.6556 634.044 82.5708 682.939 78.9333C743.655 74.4083 805.294 85.5899 864.91 99.9796C873.68 102.097 882.5 104.301 891.22 106.578C994.041 133.437 1094.3 171.637 1190.39 218.175C1219.23 232.135 1248.36 248.082 1279 256.594C1325.36 269.478 1370.33 262.865 1411.79 236.951" stroke="#149DFD" stroke-width="0.888889"/>
<path opacity="0.25" d="M169.894 632.742C169.327 581.054 186.065 532.61 217.604 493.719C249.804 454.02 294.143 426.564 341.506 408.166C377.189 394.307 417.64 391.128 451.102 371.173C483.969 351.567 490.085 295.943 495.847 261.526C502.417 222.285 502.396 169.36 526.478 136.245C558.067 92.8064 616.498 76.0305 666.053 72.1603C728.493 67.2788 791.913 79.0423 853.154 94.1741C862.165 96.4075 871.233 98.7282 880.195 101.129C985.918 129.421 1088.87 169.709 1187.15 219.084C1216.7 233.932 1246.5 250.861 1277.97 260.115C1325.38 274.039 1371.34 267.622 1413.96 241.251" stroke="#149DFD" stroke-width="0.888889"/>
<path opacity="0.25" d="M178.692 631.17C179.189 581.992 195.43 535.927 225.224 498.716C255.366 461.069 296.697 434.268 340.966 415.681C374.116 401.771 412.098 397.697 442.814 377.727C475.354 356.579 478.788 297.907 482.982 262.988C486.019 237.671 487.949 212.194 491.766 186.987C494.519 168.8 497.648 148.495 507.965 133.007C538.476 87.2625 598.787 69.7155 649.066 65.6124C713.259 60.3309 778.473 72.6327 841.353 88.4847C850.613 90.8127 859.929 93.2498 869.139 95.7596C977.807 125.492 1083.45 167.818 1183.94 220.008C1214.38 235.816 1244.97 253.378 1277.04 263.657C1324.74 278.934 1372.37 272.46 1416.11 245.586" stroke="#149DFD" stroke-width="0.888889"/>
<path opacity="0.25" d="M187.503 629.716C189.008 582.887 204.646 539.434 232.751 503.787C260.857 468.14 299.137 441.994 340.425 423.203C371.078 409.235 406.605 404.23 434.632 384.363C466.824 361.541 467.442 300.177 470.152 264.625C472.118 238.843 472.99 212.973 475.523 187.227C477.411 168.247 479.383 146.648 489.423 130.105C518.593 82.0904 581.062 63.7868 631.986 59.3491C697.924 53.6019 764.977 66.4203 829.489 82.9489C838.997 85.386 848.569 87.9322 858.02 90.5585C969.66 121.557 1078.03 165.956 1180.69 220.932C1211.7 237.526 1242.84 256.368 1276 267.157C1324.91 283.081 1373.68 277.538 1418.26 249.893" stroke="#149DFD" stroke-width="0.888889"/>
<path opacity="0.25" d="M196.34 628.363C198.78 583.891 213.773 543.072 240.197 508.88C266.45 475.001 301.622 449.713 339.895 430.682C368.093 416.663 401.129 410.705 426.553 391.027C458.284 366.467 456.098 302.411 457.354 266.335C458.284 239.629 458.007 212.872 459.483 186.187C460.554 166.771 461.427 144.72 470.836 127.435C498.295 77.2385 563.254 57.9964 614.803 53.2313C682.508 47.0186 751.242 60.3607 817.571 77.4495C827.355 79.9739 837.147 82.6146 846.861 85.3646C961.659 117.956 1072.62 164.115 1177.46 221.871C1209.31 239.411 1241.24 258.929 1275 270.671C1324.37 287.847 1374.69 282.311 1420.39 254.215" stroke="#149DFD" stroke-width="0.888889"/>
<path opacity="0.25" d="M205.179 627.126C208.5 585.157 222.918 546.636 247.546 514.117C271.799 482.108 304.154 457.439 339.355 438.24C365.04 424.229 395.728 417.398 418.576 397.828C433.086 385.403 437.485 363.061 440.323 344.947C444.29 319.652 444.694 293.797 444.581 268.24C444.453 241.585 443.233 214.937 443.396 188.289C443.524 167.723 443.013 143.832 452.265 125.129C478.192 72.7493 545.408 52.5615 597.574 47.4909C667.045 40.7398 737.653 54.5039 805.663 72.2255C815.696 74.8445 825.75 77.5798 835.712 80.4389C953.497 114.194 1067.2 162.325 1174.24 222.838C1206.65 241.163 1239.15 261.926 1273.98 274.184C1324.83 292.088 1375.64 287.104 1422.5 258.543" stroke="#149DFD" stroke-width="0.888889"/>
<path opacity="0.25" d="M214.034 626.006C218.093 586.568 231.929 550.303 254.805 519.385C277.142 489.186 306.68 465.121 338.83 445.755C362.139 431.722 390.315 423.836 410.707 404.667C424.288 391.899 427.807 370.089 430.071 352.287C433.519 325.145 432.909 297.507 431.809 270.227C430.638 241.767 428.169 213.373 427.339 184.907C426.75 164.893 425.366 141.665 433.64 123.07C457.942 68.4646 527.471 47.3456 580.226 41.9112C651.457 34.5563 724.065 48.6623 793.693 67.0169C803.967 69.7232 814.27 72.5677 824.516 75.5068C945.196 110.215 1061.79 160.507 1171.02 223.762C1204.14 242.939 1237.28 264.683 1272.96 277.691C1324.8 296.606 1376.55 291.899 1424.61 262.879" stroke="#149DFD" stroke-width="0.888889"/>
<path opacity="0.25" d="M222.897 624.987C227.694 588.11 240.906 554.064 261.979 524.717C282.421 496.236 309.157 472.942 338.305 453.278C359.528 438.961 384.752 429.998 402.945 411.563C416.604 397.741 419.002 373.283 420.471 354.557C422.6 327.233 421.124 299.632 419.052 272.351C416.923 243.979 413.496 215.73 411.446 187.358C409.927 166.355 407.068 141.272 414.993 121.331C437.557 64.5869 509.413 42.4203 562.792 36.6004C635.805 28.6343 710.321 43.046 781.638 61.9461C792.175 64.7397 802.776 67.6715 813.241 70.676C937.022 106.527 1056.39 158.746 1167.81 224.722C1201.76 244.801 1235.68 267.258 1271.93 281.175C1324.19 301.269 1377.51 296.7 1426.69 267.207" stroke="#149DFD" stroke-width="0.888889"/>
<path opacity="0.25" d="M231.774 624.085C237.244 589.696 249.768 557.941 269.054 530.107C287.651 503.27 311.662 480.595 337.78 460.8C356.683 446.468 379.36 436.472 395.254 418.532C407.941 404.244 409.495 380.601 410.445 362.028C411.942 332.885 409.409 303.523 406.245 274.584C402.952 244.495 398.284 214.573 395.105 184.47C392.92 163.809 389.301 139.78 396.304 119.876C417.044 60.9493 491.32 37.7642 545.26 31.515C620.032 22.8506 696.5 37.5823 769.548 56.9772C780.347 59.8508 791.203 62.8626 801.939 65.9835C928.792 102.889 1050.98 157 1164.6 225.682C1199.12 246.547 1233.57 270.226 1270.9 284.696C1324.69 305.539 1378.41 301.545 1428.74 271.572" stroke="#149DFD" stroke-width="0.888889"/>
<path opacity="0.25" d="M240.658 623.292C246.732 591.406 258.553 561.906 276.043 535.564C292.81 510.32 314.245 487.724 337.256 468.315C353.973 454.223 373.876 442.409 387.74 425.56C400.392 410.196 400.59 384.013 400.739 364.407C400.959 335.14 397.561 305.866 393.488 276.948C389.231 246.99 383.724 217.243 379.403 187.3C376.281 165.693 371.109 140.013 377.679 118.705C396.475 57.734 473.213 33.3485 527.713 26.6775C604.273 17.3074 682.671 32.2646 757.479 52.1396C768.541 55.0496 779.667 58.1851 790.665 61.3933C920.562 99.3028 1045.58 155.283 1161.4 226.657C1196.6 248.351 1231.71 272.998 1269.87 288.188C1324.59 310.013 1379.31 306.325 1430.84 275.923" stroke="#149DFD" stroke-width="0.888889"/>
<path opacity="0.25" d="M249.548 622.608C255.961 593.644 267.261 566.053 282.94 541.079C297.925 517.297 316.721 495.676 336.738 475.837C351.17 461.542 368.533 449.509 380.304 432.646C391.742 416.256 391.274 391.339 390.947 371.988C390.387 340.932 385.895 309.977 380.666 279.43C375.259 247.82 368.398 216.494 362.878 184.907C359.188 163.81 353.412 138.922 359.025 117.825C375.784 54.8316 455.034 29.2094 510.073 22.08C588.429 11.9461 668.778 27.107 745.353 47.4694C756.705 50.4812 768.058 53.6531 779.34 56.9268C912.352 95.7457 1040.21 153.567 1158.24 227.618C1194.28 250.235 1230.14 275.523 1268.85 291.673C1324.11 314.72 1380.11 310.908 1432.93 280.266" stroke="#149DFD" stroke-width="0.888889"/>
<path opacity="0.25" d="M258.446 622.041C265.35 595.52 275.888 570.138 289.744 546.651C303.005 524.266 319.226 503.002 336.226 483.359C348.601 469.064 363.04 455.649 372.967 439.797C383.66 422.723 382.113 397.043 381.098 377.051C379.473 345.093 374.003 313.352 367.737 282.048C361.451 250.606 353.809 219.484 347.217 188.122C342.556 165.941 335.311 139.773 340.32 117.243C354.731 52.3943 436.819 25.3317 492.32 17.7294C572.435 6.7734 654.807 22.0944 733.148 42.8788C744.749 45.9561 756.414 49.2006 767.916 52.5616C904.304 92.4789 1034.59 151.736 1154.98 228.614C1191.62 251.981 1227.94 278.513 1267.76 295.172C1324.53 318.932 1380.94 315.717 1434.93 284.646" stroke="#149DFD" stroke-width="0.888889"/>
<path opacity="0.25" d="M267.35 621.582C274.657 597.505 284.408 574.28 296.442 552.289C308.057 531.134 321.695 510.546 335.701 490.874C345.947 476.492 357.534 462.371 365.722 447.007C375.415 428.819 372.91 402.63 371.214 382.216C368.482 349.37 361.99 316.866 354.724 284.798C347.459 252.73 338.738 220.903 331.047 188.879C325.683 166.523 317.416 139.977 321.624 116.952C333.814 50.1972 418.534 21.716 474.503 13.6482C556.406 1.81918 640.757 17.2857 720.915 38.4411C732.786 41.5766 744.728 44.8866 756.52 48.3204C896.069 89.0449 1029.19 150.1 1151.82 229.618C1189.12 253.793 1226.1 281.27 1266.71 298.664C1324.36 323.399 1381.81 320.489 1436.96 289.01" stroke="#149DFD" stroke-width="0.888889"/>
<path opacity="0.25" d="M276.255 621.241C283.888 599.586 292.847 578.447 303.076 557.949C313.095 537.87 324.192 518.01 335.204 498.368C343.35 483.818 352.042 469.268 358.62 454.245C367.184 434.647 363.672 408.414 361.259 387.411C357.385 353.721 349.949 320.482 341.633 287.679C333.317 254.877 323.618 222.482 314.833 189.817C308.745 167.163 299.55 140.559 302.956 116.923C312.847 48.2842 400.22 18.3553 456.651 9.74183C540.307 -3.01833 626.708 12.5281 708.675 34.0473C720.823 37.241 733.034 40.5947 745.096 44.1085C887.814 85.6127 1023.79 148.457 1148.63 230.615C1186.78 255.713 1224.52 283.795 1265.64 302.149C1323.68 328.048 1382.72 325.269 1438.97 293.383" stroke="#149DFD" stroke-width="0.888889"/>
<path opacity="0.25" d="M285.167 621.001C306.844 567.654 333.31 515.653 351.609 461.6C358.704 440.583 354.362 414.43 351.205 392.802C346.16 358.297 337.723 324.323 328.393 290.8C319.062 257.278 308.39 224.359 298.592 191.083C291.822 168.182 281.719 141.432 284.308 117.243C291.872 46.7347 381.878 15.2853 438.749 6.16259C524.185 -7.55059 612.588 8.01771 696.407 29.857C855.849 71.4926 1007.55 139.653 1145.48 231.626C1184.19 257.438 1222.44 286.719 1264.61 305.627C1324.02 332.275 1383.54 330.056 1441 297.762" stroke="#149DFD" stroke-width="0.888889"/>
</g>
</svg>
