<svg width="138" height="138" viewBox="0 0 138 138" fill="none" xmlns="http://www.w3.org/2000/svg">
<ellipse cx="65.8762" cy="2.1722" rx="1.58242" ry="1.5" transform="rotate(41.5681 65.8762 2.1722)" fill="#40A9FF"/>
<ellipse cx="57.914" cy="11.1502" rx="1.58242" ry="1.5" transform="rotate(41.5681 57.914 11.1502)" fill="#40A9FF"/>
<ellipse cx="49.9519" cy="20.1282" rx="1.58242" ry="1.5" transform="rotate(41.5681 49.9519 20.1282)" fill="#40A9FF"/>
<ellipse cx="41.9898" cy="29.1062" rx="1.58242" ry="1.5" transform="rotate(41.5681 41.9898 29.1062)" fill="#40A9FF"/>
<ellipse cx="34.0277" cy="38.0842" rx="1.58242" ry="1.5" transform="rotate(41.5681 34.0277 38.0842)" fill="#40A9FF"/>
<ellipse cx="26.0656" cy="47.0623" rx="1.58242" ry="1.5" transform="rotate(41.5681 26.0656 47.0623)" fill="#40A9FF"/>
<ellipse cx="18.1034" cy="56.0403" rx="1.58242" ry="1.5" transform="rotate(41.5681 18.1034 56.0403)" fill="#40A9FF"/>
<ellipse cx="10.1413" cy="65.0183" rx="1.58242" ry="1.5" transform="rotate(41.5681 10.1413 65.0183)" fill="#40A9FF"/>
<ellipse cx="2.17922" cy="73.9963" rx="1.58242" ry="1.5" transform="rotate(41.5681 2.17922 73.9963)" fill="#40A9FF"/>
<ellipse cx="74.5582" cy="9.87183" rx="1.58242" ry="1.5" transform="rotate(41.5681 74.5582 9.87183)" fill="#40A9FF"/>
<ellipse cx="66.5961" cy="18.8498" rx="1.58242" ry="1.5" transform="rotate(41.5681 66.5961 18.8498)" fill="#40A9FF"/>
<ellipse cx="58.6339" cy="27.8279" rx="1.58242" ry="1.5" transform="rotate(41.5681 58.6339 27.8279)" fill="#40A9FF"/>
<ellipse cx="50.6718" cy="36.8059" rx="1.58242" ry="1.5" transform="rotate(41.5681 50.6718 36.8059)" fill="#40A9FF"/>
<ellipse cx="42.7097" cy="45.7839" rx="1.58242" ry="1.5" transform="rotate(41.5681 42.7097 45.7839)" fill="#40A9FF"/>
<ellipse cx="34.7476" cy="54.7619" rx="1.58242" ry="1.5" transform="rotate(41.5681 34.7476 54.7619)" fill="#40A9FF"/>
<ellipse cx="26.7855" cy="63.7399" rx="1.58242" ry="1.5" transform="rotate(41.5681 26.7855 63.7399)" fill="#40A9FF"/>
<ellipse cx="18.8234" cy="72.7179" rx="1.58242" ry="1.5" transform="rotate(41.5681 18.8234 72.7179)" fill="#40A9FF"/>
<ellipse cx="10.8612" cy="81.6959" rx="1.58242" ry="1.5" transform="rotate(41.5681 10.8612 81.6959)" fill="#40A9FF"/>
<ellipse cx="83.2402" cy="17.5715" rx="1.58242" ry="1.5" transform="rotate(41.5681 83.2402 17.5715)" fill="#40A9FF"/>
<ellipse cx="75.2781" cy="26.5495" rx="1.58242" ry="1.5" transform="rotate(41.5681 75.2781 26.5495)" fill="#40A9FF"/>
<ellipse cx="67.316" cy="35.5275" rx="1.58242" ry="1.5" transform="rotate(41.5681 67.316 35.5275)" fill="#40A9FF"/>
<ellipse cx="59.3539" cy="44.5055" rx="1.58242" ry="1.5" transform="rotate(41.5681 59.3539 44.5055)" fill="#40A9FF"/>
<ellipse cx="51.3918" cy="53.4835" rx="1.58242" ry="1.5" transform="rotate(41.5681 51.3918 53.4835)" fill="#40A9FF"/>
<ellipse cx="43.4296" cy="62.4615" rx="1.58242" ry="1.5" transform="rotate(41.5681 43.4296 62.4615)" fill="#40A9FF"/>
<ellipse cx="35.4675" cy="71.4395" rx="1.58242" ry="1.5" transform="rotate(41.5681 35.4675 71.4395)" fill="#40A9FF"/>
<ellipse cx="27.5054" cy="80.4175" rx="1.58242" ry="1.5" transform="rotate(41.5681 27.5054 80.4175)" fill="#40A9FF"/>
<ellipse cx="19.5433" cy="89.3956" rx="1.58242" ry="1.5" transform="rotate(41.5681 19.5433 89.3956)" fill="#40A9FF"/>
<ellipse cx="91.9222" cy="25.2711" rx="1.58242" ry="1.5" transform="rotate(41.5681 91.9222 25.2711)" fill="#40A9FF"/>
<ellipse cx="83.9601" cy="34.2491" rx="1.58242" ry="1.5" transform="rotate(41.5681 83.9601 34.2491)" fill="#40A9FF"/>
<ellipse cx="75.998" cy="43.2271" rx="1.58242" ry="1.5" transform="rotate(41.5681 75.998 43.2271)" fill="#40A9FF"/>
<ellipse cx="68.0359" cy="52.2051" rx="1.58242" ry="1.5" transform="rotate(41.5681 68.0359 52.2051)" fill="#40A9FF"/>
<ellipse cx="60.0738" cy="61.1831" rx="1.58242" ry="1.5" transform="rotate(41.5681 60.0738 61.1831)" fill="#40A9FF"/>
<ellipse cx="52.1117" cy="70.1611" rx="1.58242" ry="1.5" transform="rotate(41.5681 52.1117 70.1611)" fill="#40A9FF"/>
<ellipse cx="44.1495" cy="79.1392" rx="1.58242" ry="1.5" transform="rotate(41.5681 44.1495 79.1392)" fill="#40A9FF"/>
<ellipse cx="36.1874" cy="88.1172" rx="1.58242" ry="1.5" transform="rotate(41.5681 36.1874 88.1172)" fill="#40A9FF"/>
<ellipse cx="28.2253" cy="97.0952" rx="1.58242" ry="1.5" transform="rotate(41.5681 28.2253 97.0952)" fill="#40A9FF"/>
<ellipse cx="100.604" cy="32.9707" rx="1.58242" ry="1.5" transform="rotate(41.5681 100.604 32.9707)" fill="#40A9FF"/>
<ellipse cx="92.6422" cy="41.9487" rx="1.58242" ry="1.5" transform="rotate(41.5681 92.6422 41.9487)" fill="#40A9FF"/>
<ellipse cx="84.68" cy="50.9267" rx="1.58242" ry="1.5" transform="rotate(41.5681 84.68 50.9267)" fill="#40A9FF"/>
<ellipse cx="76.7179" cy="59.9048" rx="1.58242" ry="1.5" transform="rotate(41.5681 76.7179 59.9048)" fill="#40A9FF"/>
<ellipse cx="68.7559" cy="68.8828" rx="1.58242" ry="1.5" transform="rotate(41.5681 68.7559 68.8828)" fill="#40A9FF"/>
<ellipse cx="60.7937" cy="77.8608" rx="1.58242" ry="1.5" transform="rotate(41.5681 60.7937 77.8608)" fill="#40A9FF"/>
<ellipse cx="52.8316" cy="86.8388" rx="1.58242" ry="1.5" transform="rotate(41.5681 52.8316 86.8388)" fill="#40A9FF"/>
<ellipse cx="44.8695" cy="95.8168" rx="1.58242" ry="1.5" transform="rotate(41.5681 44.8695 95.8168)" fill="#40A9FF"/>
<ellipse cx="36.9074" cy="104.795" rx="1.58242" ry="1.5" transform="rotate(41.5681 36.9074 104.795)" fill="#40A9FF"/>
<ellipse cx="109.286" cy="40.6703" rx="1.58242" ry="1.5" transform="rotate(41.5681 109.286 40.6703)" fill="#40A9FF"/>
<ellipse cx="101.324" cy="49.6483" rx="1.58242" ry="1.5" transform="rotate(41.5681 101.324 49.6483)" fill="#40A9FF"/>
<ellipse cx="93.3621" cy="58.6264" rx="1.58242" ry="1.5" transform="rotate(41.5681 93.3621 58.6264)" fill="#40A9FF"/>
<ellipse cx="85.4" cy="67.6044" rx="1.58242" ry="1.5" transform="rotate(41.5681 85.4 67.6044)" fill="#40A9FF"/>
<ellipse cx="77.4379" cy="76.5824" rx="1.58242" ry="1.5" transform="rotate(41.5681 77.4379 76.5824)" fill="#40A9FF"/>
<ellipse cx="69.4758" cy="85.5604" rx="1.58242" ry="1.5" transform="rotate(41.5681 69.4758 85.5604)" fill="#40A9FF"/>
<ellipse cx="61.5136" cy="94.5384" rx="1.58242" ry="1.5" transform="rotate(41.5681 61.5136 94.5384)" fill="#40A9FF"/>
<ellipse cx="53.5515" cy="103.516" rx="1.58242" ry="1.5" transform="rotate(41.5681 53.5515 103.516)" fill="#40A9FF"/>
<ellipse cx="45.5894" cy="112.494" rx="1.58242" ry="1.5" transform="rotate(41.5681 45.5894 112.494)" fill="#40A9FF"/>
<ellipse cx="117.968" cy="48.37" rx="1.58242" ry="1.5" transform="rotate(41.5681 117.968 48.37)" fill="#40A9FF"/>
<ellipse cx="110.006" cy="57.348" rx="1.58242" ry="1.5" transform="rotate(41.5681 110.006 57.348)" fill="#40A9FF"/>
<ellipse cx="102.044" cy="66.326" rx="1.58242" ry="1.5" transform="rotate(41.5681 102.044 66.326)" fill="#40A9FF"/>
<ellipse cx="94.082" cy="75.304" rx="1.58242" ry="1.5" transform="rotate(41.5681 94.082 75.304)" fill="#40A9FF"/>
<ellipse cx="86.1199" cy="84.282" rx="1.58242" ry="1.5" transform="rotate(41.5681 86.1199 84.282)" fill="#40A9FF"/>
<ellipse cx="78.1578" cy="93.26" rx="1.58242" ry="1.5" transform="rotate(41.5681 78.1578 93.26)" fill="#40A9FF"/>
<ellipse cx="70.1957" cy="102.238" rx="1.58242" ry="1.5" transform="rotate(41.5681 70.1957 102.238)" fill="#40A9FF"/>
<ellipse cx="62.2336" cy="111.216" rx="1.58242" ry="1.5" transform="rotate(41.5681 62.2336 111.216)" fill="#40A9FF"/>
<ellipse cx="54.2714" cy="120.194" rx="1.58242" ry="1.5" transform="rotate(41.5681 54.2714 120.194)" fill="#40A9FF"/>
<ellipse cx="126.65" cy="56.0696" rx="1.58242" ry="1.5" transform="rotate(41.5681 126.65 56.0696)" fill="#40A9FF"/>
<ellipse cx="118.688" cy="65.0476" rx="1.58242" ry="1.5" transform="rotate(41.5681 118.688 65.0476)" fill="#40A9FF"/>
<ellipse cx="110.726" cy="74.0256" rx="1.58242" ry="1.5" transform="rotate(41.5681 110.726 74.0256)" fill="#40A9FF"/>
<ellipse cx="102.764" cy="83.0036" rx="1.58242" ry="1.5" transform="rotate(41.5681 102.764 83.0036)" fill="#40A9FF"/>
<ellipse cx="94.8019" cy="91.9816" rx="1.58242" ry="1.5" transform="rotate(41.5681 94.8019 91.9816)" fill="#40A9FF"/>
<ellipse cx="86.8398" cy="100.96" rx="1.58242" ry="1.5" transform="rotate(41.5681 86.8398 100.96)" fill="#40A9FF"/>
<ellipse cx="78.8777" cy="109.938" rx="1.58242" ry="1.5" transform="rotate(41.5681 78.8777 109.938)" fill="#40A9FF"/>
<ellipse cx="70.9156" cy="118.916" rx="1.58242" ry="1.5" transform="rotate(41.5681 70.9156 118.916)" fill="#40A9FF"/>
<ellipse cx="62.9535" cy="127.894" rx="1.58242" ry="1.5" transform="rotate(41.5681 62.9535 127.894)" fill="#40A9FF"/>
<ellipse cx="135.332" cy="63.7692" rx="1.58242" ry="1.5" transform="rotate(41.5681 135.332 63.7692)" fill="#40A9FF"/>
<ellipse cx="127.37" cy="72.7472" rx="1.58242" ry="1.5" transform="rotate(41.5681 127.37 72.7472)" fill="#40A9FF"/>
<ellipse cx="119.408" cy="81.7253" rx="1.58242" ry="1.5" transform="rotate(41.5681 119.408 81.7253)" fill="#40A9FF"/>
<ellipse cx="111.446" cy="90.7033" rx="1.58242" ry="1.5" transform="rotate(41.5681 111.446 90.7033)" fill="#40A9FF"/>
<ellipse cx="103.484" cy="99.6813" rx="1.58242" ry="1.5" transform="rotate(41.5681 103.484 99.6813)" fill="#40A9FF"/>
<ellipse cx="95.5219" cy="108.659" rx="1.58242" ry="1.5" transform="rotate(41.5681 95.5219 108.659)" fill="#40A9FF"/>
<ellipse cx="87.5597" cy="117.637" rx="1.58242" ry="1.5" transform="rotate(41.5681 87.5597 117.637)" fill="#40A9FF"/>
<ellipse cx="79.5976" cy="126.615" rx="1.58242" ry="1.5" transform="rotate(41.5681 79.5976 126.615)" fill="#40A9FF"/>
<ellipse cx="71.6356" cy="135.593" rx="1.58242" ry="1.5" transform="rotate(41.5681 71.6356 135.593)" fill="#40A9FF"/>
</svg>
