<svg width="407" height="420" viewBox="0 0 407 420" fill="none" xmlns="http://www.w3.org/2000/svg">
<g clip-path="url(#clip0_314_11227)">
<path d="M177.645 1.09984L175.974 0L174.875 1.67043L176.545 2.77027L177.645 1.09984Z" fill="#E5E7EB"/>
<path d="M247.595 142.94L209.018 117.54L211.725 71.4302L253.012 50.7224L291.589 76.1222L288.88 122.231L247.595 142.94ZM206.31 163.648L167.731 138.248L170.439 92.139L211.725 71.4302L250.303 96.831L247.595 142.94L206.31 163.648ZM250.303 96.831L211.725 71.4302L214.433 25.3216L255.718 4.61279L294.297 30.0136L291.589 76.1222L250.303 96.831ZM167.731 138.248L129.154 112.848L131.864 66.7404L173.149 46.0315L211.728 71.4324L209.02 117.541L167.731 138.248ZM211.725 71.4302L173.148 46.0304L175.858 -0.0770023L217.143 -20.7858L255.722 4.61499L253.012 50.7224L211.725 71.4302ZM170.439 92.139L131.864 66.7404L134.572 20.6318L175.858 -0.0770023L214.435 25.3227L211.725 71.4302L170.439 92.139Z" stroke="#E5E7EB" stroke-width="2"/>
</g>
<g clip-path="url(#clip1_314_11227)">
<path d="M89.6577 134.735L87.9873 133.635L86.8875 135.305L88.5579 136.405L89.6577 134.735Z" fill="#E5E7EB"/>
<path d="M159.608 276.574L121.031 251.175L123.737 205.065L165.024 184.357L203.601 209.757L200.893 255.865L159.608 276.574ZM118.323 297.283L79.7438 271.882L82.4521 225.774L123.737 205.065L162.316 230.466L159.608 276.574L118.323 297.283ZM162.316 230.466L123.737 205.065L126.446 158.956L167.731 138.248L206.31 163.648L203.601 209.757L162.316 230.466ZM79.7438 271.882L41.1668 246.483L43.8768 200.375L85.1621 179.666L123.741 205.067L121.032 251.176L79.7438 271.882ZM123.737 205.065L85.1604 179.665L87.8704 133.558L129.156 112.849L167.734 138.25L165.024 184.357L123.737 205.065ZM82.4521 225.774L43.8768 200.375L46.5851 154.267L87.8704 133.558L126.447 158.957L123.737 205.065L82.4521 225.774Z" stroke="#E5E7EB" stroke-width="2"/>
</g>
<g clip-path="url(#clip2_314_11227)">
<path d="M292.905 76.9889L291.234 75.889L290.135 77.5595L291.805 78.6593L292.905 76.9889Z" fill="#E5E7EB"/>
<path d="M362.855 218.829L324.278 193.429L326.985 147.319L368.272 126.611L406.849 152.011L404.14 198.12L362.855 218.829ZM321.57 239.537L282.991 214.137L285.699 168.028L326.985 147.319L365.563 172.72L362.855 218.829L321.57 239.537ZM365.563 172.72L326.985 147.319L329.693 101.211L370.978 80.5018L409.557 105.903L406.849 152.011L365.563 172.72ZM282.991 214.137L244.414 188.737L247.124 142.629L288.409 121.921L326.988 147.321L324.28 193.43L282.991 214.137ZM326.985 147.319L288.408 121.919L291.118 75.812L332.403 55.1032L370.982 80.504L368.272 126.611L326.985 147.319ZM285.699 168.028L247.124 142.629L249.832 96.5209L291.118 75.812L329.695 101.212L326.985 147.319L285.699 168.028Z" stroke="#E5E7EB" stroke-width="2"/>
</g>
<g clip-path="url(#clip3_314_11227)">
<path d="M204.918 210.624L203.247 209.524L202.147 211.194L203.818 212.294L204.918 210.624Z" fill="#E5E7EB"/>
<path d="M274.868 352.463L236.291 327.064L238.997 280.954L280.284 260.246L318.861 285.646L316.153 331.755L274.868 352.463ZM233.582 373.172L195.004 347.771L197.712 301.663L238.997 280.954L277.576 306.355L274.868 352.463L233.582 373.172ZM277.576 306.355L238.997 280.954L241.706 234.845L282.991 214.137L321.57 239.537L318.861 285.646L277.576 306.355ZM195.004 347.771L156.427 322.372L159.137 276.264L200.422 255.555L239.001 280.956L236.292 327.065L195.004 347.771ZM238.997 280.954L200.42 255.554L203.13 209.447L244.416 188.738L282.994 214.139L280.284 260.246L238.997 280.954ZM197.712 301.663L159.137 276.264L161.845 230.156L203.13 209.447L241.707 234.847L238.997 280.954L197.712 301.663Z" stroke="#E5E7EB" stroke-width="2"/>
</g>
<g clip-path="url(#clip4_314_11227)">
<path d="M133.651 67.9172L131.981 66.8174L130.881 68.4878L132.551 69.5877L133.651 67.9172Z" fill="#E5E7EB"/>
<path d="M203.601 209.757L165.024 184.357L167.731 138.248L209.018 117.54L247.595 142.94L244.887 189.048L203.601 209.757ZM162.316 230.466L123.737 205.065L126.446 158.956L167.731 138.248L206.31 163.648L203.601 209.757L162.316 230.466ZM206.31 163.648L167.731 138.248L170.439 92.139L211.725 71.4302L250.303 96.831L247.595 142.94L206.31 163.648ZM123.737 205.065L85.1603 179.665L87.8703 133.558L129.156 112.849L167.734 138.25L165.026 184.358L123.737 205.065ZM167.731 138.248L129.154 112.848L131.864 66.7404L173.149 46.0316L211.728 71.4324L209.018 117.54L167.731 138.248ZM126.446 158.956L87.8703 133.558L90.5786 87.4492L131.864 66.7404L170.441 92.1401L167.731 138.248L126.446 158.956Z" stroke="#E5E7EB" stroke-width="2"/>
</g>
<g clip-path="url(#clip5_314_11227)">
<path d="M45.6641 201.552L43.9937 200.452L42.8938 202.123L44.5642 203.222L45.6641 201.552Z" fill="#E5E7EB"/>
<path d="M115.614 343.392L77.0372 317.992L79.7438 271.882L121.031 251.175L159.608 276.574L156.899 322.683L115.614 343.392ZM74.3289 364.1L35.7502 338.7L38.4585 292.591L79.7438 271.882L118.322 297.283L115.614 343.392L74.3289 364.1ZM118.322 297.283L79.7438 271.882L82.4521 225.774L123.737 205.065L162.316 230.466L159.608 276.574L118.322 297.283ZM35.7502 338.7L-2.82683 313.3L-0.116851 267.193L41.1685 246.484L79.7471 271.885L77.0388 317.993L35.7502 338.7ZM79.7438 271.882L41.1668 246.483L43.8768 200.375L85.1621 179.666L123.741 205.067L121.031 251.175L79.7438 271.882ZM38.4585 292.591L-0.116851 267.193L2.59146 221.084L43.8768 200.375L82.4538 225.775L79.7438 271.882L38.4585 292.591Z" stroke="#E5E7EB" stroke-width="2"/>
</g>
<g clip-path="url(#clip6_314_11227)">
<path d="M248.911 143.806L247.241 142.706L246.141 144.377L247.811 145.477L248.911 143.806Z" fill="#E5E7EB"/>
<path d="M318.861 285.646L280.284 260.246L282.991 214.137L324.278 193.429L362.855 218.829L360.147 264.937L318.861 285.646ZM277.576 306.355L238.997 280.954L241.706 234.845L282.991 214.137L321.57 239.537L318.861 285.646L277.576 306.355ZM321.57 239.537L282.991 214.137L285.699 168.028L326.985 147.319L365.563 172.72L362.855 218.829L321.57 239.537ZM238.997 280.954L200.42 255.554L203.13 209.447L244.416 188.738L282.994 214.139L280.286 260.247L238.997 280.954ZM282.991 214.137L244.414 188.737L247.124 142.629L288.409 121.921L326.988 147.321L324.278 193.429L282.991 214.137ZM241.706 234.845L203.13 209.447L205.839 163.338L247.124 142.629L285.701 168.029L282.991 214.137L241.706 234.845Z" stroke="#E5E7EB" stroke-width="2"/>
</g>
<g clip-path="url(#clip7_314_11227)">
<path d="M160.924 277.441L159.254 276.341L158.154 278.012L159.824 279.111L160.924 277.441Z" fill="#E5E7EB"/>
<path d="M230.874 419.281L192.297 393.881L195.004 347.771L236.291 327.064L274.868 352.463L272.159 398.572L230.874 419.281ZM189.589 439.99L151.01 414.589L153.718 368.48L195.004 347.771L233.582 373.172L230.874 419.281L189.589 439.99ZM233.582 373.172L195.004 347.771L197.712 301.663L238.997 280.954L277.576 306.355L274.868 352.463L233.582 373.172ZM151.01 414.589L112.433 389.189L115.143 343.082L156.428 322.373L195.007 347.774L192.299 393.882L151.01 414.589ZM195.004 347.771L156.427 322.372L159.137 276.264L200.422 255.555L239.001 280.956L236.291 327.064L195.004 347.771ZM153.718 368.48L115.143 343.082L117.851 296.973L159.137 276.264L197.714 301.664L195.004 347.771L153.718 368.48Z" stroke="#E5E7EB" stroke-width="2"/>
</g>
<defs>
<clipPath id="clip0_314_11227">
<rect width="138.282" height="80" fill="white" transform="translate(175.974) rotate(33.3615)"/>
</clipPath>
<clipPath id="clip1_314_11227">
<rect width="138.282" height="80" fill="white" transform="translate(87.9873 133.635) rotate(33.3615)"/>
</clipPath>
<clipPath id="clip2_314_11227">
<rect width="138.282" height="80" fill="white" transform="translate(291.234 75.889) rotate(33.3615)"/>
</clipPath>
<clipPath id="clip3_314_11227">
<rect width="138.282" height="80" fill="white" transform="translate(203.247 209.524) rotate(33.3615)"/>
</clipPath>
<clipPath id="clip4_314_11227">
<rect width="138.282" height="80" fill="white" transform="translate(131.981 66.8174) rotate(33.3615)"/>
</clipPath>
<clipPath id="clip5_314_11227">
<rect width="138.282" height="80" fill="white" transform="translate(43.9937 200.452) rotate(33.3615)"/>
</clipPath>
<clipPath id="clip6_314_11227">
<rect width="138.282" height="80" fill="white" transform="translate(247.241 142.706) rotate(33.3615)"/>
</clipPath>
<clipPath id="clip7_314_11227">
<rect width="138.282" height="80" fill="white" transform="translate(159.254 276.341) rotate(33.3615)"/>
</clipPath>
</defs>
</svg>
